<svg xmlns="http://www.w3.org/2000/svg" width="1400" height="780" viewBox="0 0 1400 780" role="img" aria-labelledby="title desc">
  <title id="title">学科建设纲领 的关键概念对应</title>
  <desc id="desc">学科建设纲领 的关键概念对应</desc>
  <defs>
    <marker id="arrow" viewBox="0 0 10 10" refX="8" refY="5" markerWidth="8" markerHeight="8" orient="auto">
      <path d="M 0 0 L 10 5 L 0 10 z" fill="#444"/>
    </marker>
    <style>
      .bg { fill: #fff; }
      .shadow { fill: #9a9a9a; }
      .box { fill: #efefef; stroke: #4a4a4a; stroke-width: 2; }
      .light { fill: #f9f9f9; stroke: #4a4a4a; stroke-width: 1.8; }
      .line { fill: none; stroke: #444; stroke-width: 1.8; marker-end: url(#arrow); }
      .dash { fill: none; stroke: #666; stroke-width: 1.4; stroke-dasharray: 7 6; marker-end: url(#arrow); }
      .rule { fill: none; stroke: #666; stroke-width: 1.4; }
      .title { font: 400 24px "SimSun","Songti SC","Noto Serif SC",serif; fill: #222; }
      .label { font: 400 21px "SimSun","Songti SC","Noto Serif SC",serif; fill: #222; }
      .note { font: 400 18px "SimSun","Songti SC","Noto Serif SC",serif; fill: #333; }
      .small { font: 400 16px "SimSun","Songti SC","Noto Serif SC",serif; fill: #333; }
    </style>
  </defs>
  <rect class="bg" width="1400" height="780"/>
  <g>
  <rect class="shadow" x="506" y="52" width="400" height="74"/>
  <rect class="light" x="500" y="46" width="400" height="74"/>
  <text class="label" x="700" y="90" text-anchor="middle">学科建设纲领</text>
</g>
<g>
  <rect class="shadow" x="178" y="186" width="486" height="118"/>
  <rect class="box" x="172" y="180" width="486" height="118"/>
  <text class="title" x="415" y="246" text-anchor="middle">本科课程</text>
</g>
<g>
  <rect class="shadow" x="748" y="186" width="486" height="118"/>
  <rect class="box" x="742" y="180" width="486" height="118"/>
  <text class="title" x="985" y="246" text-anchor="middle">研究生课程</text>
</g>
<g>
  <rect class="shadow" x="178" y="368" width="486" height="118"/>
  <rect class="box" x="172" y="362" width="486" height="118"/>
  <text class="title" x="415" y="428" text-anchor="middle">实验室方向</text>
</g>
<g>
  <rect class="shadow" x="748" y="368" width="486" height="118"/>
  <rect class="box" x="742" y="362" width="486" height="118"/>
  <text class="title" x="985" y="428" text-anchor="middle">学科宣言</text>
</g>
<path class="dash" d="M 658 239 L 742 239"/>
<path class="dash" d="M 658 421 L 742 421"/>
<path class="dash" d="M 415 298 L 415 362"/>
<path class="dash" d="M 985 298 L 985 362"/>
<g>
  <rect class="shadow" x="426" y="624" width="560" height="72"/>
  <rect class="light" x="420" y="618" width="560" height="72"/>
  <text class="label" x="700" y="661" text-anchor="middle">学科建设纲领 的关键概念对应</text>
</g>
</svg>