<svg xmlns="http://www.w3.org/2000/svg" width="1400" height="780" viewBox="0 0 1400 780" role="img" aria-labelledby="title desc">
  <title id="title">APU-IR 作为 Agent 与硬件之间的任务契约</title>
  <desc id="desc">APU-IR 作为 Agent 与硬件之间的任务契约</desc>
  <defs>
    <marker id="arrow" viewBox="0 0 10 10" refX="8" refY="5" markerWidth="8" markerHeight="8" orient="auto">
      <path d="M 0 0 L 10 5 L 0 10 z" fill="#444"/>
    </marker>
    <style>
      .bg { fill: #fff; }
      .shadow { fill: #9a9a9a; }
      .box { fill: #efefef; stroke: #4a4a4a; stroke-width: 2; }
      .light { fill: #f9f9f9; stroke: #4a4a4a; stroke-width: 1.8; }
      .line { fill: none; stroke: #444; stroke-width: 1.8; marker-end: url(#arrow); }
      .dash { fill: none; stroke: #666; stroke-width: 1.4; stroke-dasharray: 7 6; marker-end: url(#arrow); }
      .rule { fill: none; stroke: #666; stroke-width: 1.4; }
      .title { font: 400 24px "SimSun","Songti SC","Noto Serif SC",serif; fill: #222; }
      .label { font: 400 21px "SimSun","Songti SC","Noto Serif SC",serif; fill: #222; }
      .note { font: 400 18px "SimSun","Songti SC","Noto Serif SC",serif; fill: #333; }
      .small { font: 400 16px "SimSun","Songti SC","Noto Serif SC",serif; fill: #333; }
    </style>
  </defs>
  <rect class="bg" width="1400" height="780"/>
  <g>
    <rect class="shadow" x="98" y="114" width="220" height="72"/>
    <rect class="light" x="92" y="108" width="220" height="72"/>
    <text class="label" x="202" y="151" text-anchor="middle">任务</text>
  </g>
<g>
    <rect class="shadow" x="98" y="204" width="220" height="72"/>
    <rect class="light" x="92" y="198" width="220" height="72"/>
    <text class="label" x="202" y="241" text-anchor="middle">权限</text>
  </g>
<g>
    <rect class="shadow" x="98" y="294" width="220" height="72"/>
    <rect class="light" x="92" y="288" width="220" height="72"/>
    <text class="label" x="202" y="331" text-anchor="middle">预算</text>
  </g>
<g>
    <rect class="shadow" x="98" y="384" width="220" height="72"/>
    <rect class="light" x="92" y="378" width="220" height="72"/>
    <text class="label" x="202" y="421" text-anchor="middle">证据 / trace</text>
  </g>
<g>
    <rect class="shadow" x="510" y="190" width="392" height="230"/>
    <rect class="box" x="504" y="184" width="392" height="230"/>
    <text class="title" x="700" y="226" text-anchor="middle">APU-IR</text>
    <text class="note" x="700" y="262" text-anchor="middle">任务图 / capability / budget</text>
    <text class="note" x="700" y="288" text-anchor="middle">evidence ref / trace policy</text>
    <text class="note" x="700" y="314" text-anchor="middle">把开放任务变成可编译契约</text>
  </g>
<g>
    <rect class="shadow" x="1084" y="138" width="220" height="82"/>
    <rect class="light" x="1078" y="132" width="220" height="82"/>
    <text class="label" x="1188" y="180" text-anchor="middle">编译 / 调度</text>
  </g>
<g>
    <rect class="shadow" x="1084" y="254" width="220" height="82"/>
    <rect class="light" x="1078" y="248" width="220" height="82"/>
    <text class="label" x="1188" y="296" text-anchor="middle">运行时 / 硬件</text>
  </g>
<g>
    <rect class="shadow" x="1084" y="370" width="220" height="82"/>
    <rect class="light" x="1078" y="364" width="220" height="82"/>
    <text class="label" x="1188" y="412" text-anchor="middle">执行结果</text>
  </g>
<path class="line" d="M 312 144 L 504 232"/>
<path class="line" d="M 312 234 L 504 270"/>
<path class="line" d="M 312 324 L 504 308"/>
<path class="line" d="M 312 414 L 504 346"/>
<path class="line" d="M 896 246 L 1078 172"/>
<path class="line" d="M 896 298 L 1078 288"/>
<path class="line" d="M 896 350 L 1078 404"/>
<g>
    <rect class="shadow" x="326" y="618" width="760" height="72"/>
    <rect class="light" x="320" y="612" width="760" height="72"/>
    <text class="label" x="700" y="655" text-anchor="middle">APU-IR 把开放任务变成可编译、可调度、可审计的任务契约</text>
  </g>
</svg>