<svg xmlns="http://www.w3.org/2000/svg" width="1400" height="780" viewBox="0 0 1400 780" role="img" aria-labelledby="title desc">
  <title id="title">任务型 Agent 的执行模型 的机制闭环</title>
  <desc id="desc">任务型 Agent 的执行模型 的机制闭环</desc>
  <defs>
    <marker id="arrow" viewBox="0 0 10 10" refX="8" refY="5" markerWidth="8" markerHeight="8" orient="auto">
      <path d="M 0 0 L 10 5 L 0 10 z" fill="#444"/>
    </marker>
    <style>
      .bg { fill: #fff; }
      .shadow { fill: #9a9a9a; }
      .box { fill: #efefef; stroke: #4a4a4a; stroke-width: 2; }
      .light { fill: #f9f9f9; stroke: #4a4a4a; stroke-width: 1.8; }
      .line { fill: none; stroke: #444; stroke-width: 1.8; marker-end: url(#arrow); }
      .dash { fill: none; stroke: #666; stroke-width: 1.4; stroke-dasharray: 7 6; marker-end: url(#arrow); }
      .rule { fill: none; stroke: #666; stroke-width: 1.4; }
      .title { font: 400 24px "SimSun","Songti SC","Noto Serif SC",serif; fill: #222; }
      .label { font: 400 21px "SimSun","Songti SC","Noto Serif SC",serif; fill: #222; }
      .note { font: 400 18px "SimSun","Songti SC","Noto Serif SC",serif; fill: #333; }
      .small { font: 400 16px "SimSun","Songti SC","Noto Serif SC",serif; fill: #333; }
    </style>
  </defs>
  <rect class="bg" width="1400" height="780"/>
  <g>
  <rect class="shadow" x="506" y="52" width="400" height="74"/>
  <rect class="light" x="500" y="46" width="400" height="74"/>
  <text class="label" x="700" y="90" text-anchor="middle">任务型Agent的执行模型</text>
</g>
<g>
  <rect class="shadow" x="552" y="292" width="308" height="88"/>
  <rect class="light" x="546" y="286" width="308" height="88"/>
  <text class="label" x="700" y="337" text-anchor="middle">任务型 Agent 的执行模型</text>
</g>
<g>
  <rect class="shadow" x="572" y="120" width="248" height="88"/>
  <rect class="box" x="566" y="114" width="248" height="88"/>
  <text class="title" x="690" y="156" text-anchor="middle">任务型Agent是什</text>
  <text class="note" x="690" y="190" text-anchor="middle">么</text>
</g>
<g>
  <rect class="shadow" x="996" y="292" width="248" height="88"/>
  <rect class="box" x="990" y="286" width="248" height="88"/>
  <text class="title" x="1114" y="328" text-anchor="middle">上下文</text>
  <text class="note" x="1114" y="362" text-anchor="middle">执行所依赖的工作空间</text>
</g>
<g>
  <rect class="shadow" x="572" y="474" width="248" height="88"/>
  <rect class="box" x="566" y="468" width="248" height="88"/>
  <text class="title" x="690" y="510" text-anchor="middle">计划</text>
  <text class="note" x="690" y="544" text-anchor="middle">从目标到行动序列</text>
</g>
<g>
  <rect class="shadow" x="108" y="292" width="248" height="88"/>
  <rect class="box" x="102" y="286" width="248" height="88"/>
  <text class="title" x="226" y="337" text-anchor="middle">执行模型的意义</text>
</g>
<path class="line" d="M 690 202 C 872 210 968 248 990 286"/>
<path class="line" d="M 1114 374 C 1068 446 962 506 814 512"/>
<path class="line" d="M 566 556 C 400 548 216 488 186 374"/>
<path class="line" d="M 102 286 C 132 184 274 138 566 158"/>
<g>
  <rect class="shadow" x="446" y="624" width="520" height="72"/>
  <rect class="light" x="440" y="618" width="520" height="72"/>
  <text class="label" x="700" y="661" text-anchor="middle">任务型 Agent 的执行模型 的机制闭环</text>
</g>
</svg>